<svg xmlns="http://www.w3.org/2000/svg" data-name="Layer 1" viewBox="0 0 100 125"><defs><style>.cls-1{fill:#202020}</style></defs><path d="M36.66 58.82s.02.01 0 0m-.73 3.3.11-.07c-.11-.05-.04.04-.11.07m.19 1.27h.13Zm.94-5.45s.02.06 0 0m0-8.19c-.25.09-.32-.15-.6 0 .11-.03.44.11.6 0m-.46 5.33s.06 0 0-.05.05.02 0 .05m.02-.83h-.06Zm-2.08-15.92h.25c-.2-.02-.28-.14-.25 0m-.16 27.62h.11Zm.02-11.49a.6.6 0 0 0 .2-.07h-.07Zm2.18-13.02s.01 0 0 0m-.05-1.5h.09Zm-1.93 4h.07l-.07-.02zm-.04 20.51h.12Zm.07-7.1c-.06-.06-.04-.03 0 0m.56 2.14-.13-.07s-.06.06.13.07m-.81-4.5v-.02z" class="cls-1"/><path d="M35.07 59.32c-.06 0 0 .07 0 .1s.04-.07 0-.1m.69 5.68-.09.14h.28c.33-.14-.25.01-.19-.14m.19-.51c0 .08.16 0 .22 0-.1-.04-.17-.05-.22 0m.22-3.38h.25c-.03-.04-.09.02-.25 0m-1.29-.72-.16.05.24.04zm1.88-.25-.09-.11.06.08zm.11-5.74h-.32c.06.06.45.08.32 0m-.27-2.46c.16 0 .26-.09.11-.14s-.15.11-.11.14m.53-7.39.11.05-.09-.09zm-2.95 20.02c-.09 0-.23.16-.11.26l.34-.1Zm.17.67c-.1 0 0-.25-.25-.2a.39.39 0 0 0 .18.59c-.06.06-.15 0-.22 0l.22.09a.66.66 0 0 0 .53 0c-.33-.1-.22-.18-.63-.24a.2.2 0 0 1 .17-.24m13.56-1.01a.08.08 0 0 0 0 .1s.02-.08 0-.1M41.67 67h.21c-.03-.06-.12 0-.21 0m-6.74.22a.24.24 0 0 0-.08-.1v.09ZM39 68.49h-.05a1 1 0 0 0 0 .14Zm-3.43-34.01h.04l.07-.14zm15.61 28.87c-.04.05-.02.03 0 0M67.57 51.5c-.31.22-.21-.54-.58-.18.13-.03.34.51.58.18m-10.69 8h.13s-.06.01-.13 0m1.7-1.02h-.06ZM43 39.19a1 1 0 0 1 0-.27c-.08.2-.37.14 0 .27" class="cls-1"/><path d="M34.89 67.28v-.07a.2.2 0 0 0-.11 0c.06.02.09.04.11.07m21.99-10.36a.5.5 0 0 0 .25.08.3.3 0 0 0 0-.08Z" class="cls-1"/><path d="M67.85 49.93a5 5 0 0 1-.23.44.57.57 0 0 1 0-.66.49.49 0 0 0-.12-.67l.27.15c-.2-.35-.68-1.26-1.27-1.14 0-.09.08-.26.22-.18-.51-.67-1.56-.66-1.83-1.16l.12-.1c-.13 0-.33.13-.39-.07 0-.05.12-.11.07-.14s-.41.07-.51-.07l.2-.09c-.49-.47-1 0-1.53-.15.18-.4-.18-.72-.36-.88v-.05c-.6-.33-1.21-.14-1.85-.25-.16-.6-1.13-.73-1.59-1.23.05.11-.16.31-.28.3s-.5.11-.31-.25c.06-.41-.26-.44-.47-.54l-.25.47c-.25-1-1.6-.41-1.62-1.18-.19.06-.36 0-.55 0l.12-.25a3 3 0 0 0-1-.5l.18-.14c-.26-.14-.67.59-.92.5l.1-.42c-.46-.2-.78-.75-1.39-.61 0-.05.1-.16.18-.14-.21-.11-.72-.64-.88-.07.15-.35-.46-.25-.78-.21l.15-.24c-.36.23-.4.32-.74.27-.05-.06 0-.23.09-.12-.17-.24-.29.16-.51-.1l.18-.12c-.23-.13-.25 0-.47.1s-.42-.27-.35-.51c-.1.13-.31.25-.42.12a.19.19 0 0 1 .13-.14c-.32-.35-.72 0-.89-.34a.27.27 0 0 0 0-.17 2.4 2.4 0 0 1 .53.29c.11-.23-.13-.39.22-.62-.28.08-.81.31-1 .09a.4.4 0 0 1 0-.1.16.16 0 0 0-.1-.05.55.55 0 0 0-.17-.16c.06-.21-.25-.24-.37-.3-.11.26-.25.14-.19.43h.2l.32.13c-.16.08-.31.15-.39-.06l-.36.33c0-.44-.26-.78-.21-1-.45 0-1-.32-1.42.05-.14 0-.06-.2-.07-.29s.16 0 .22 0c-.28 0-.68-.25-.88.07-.21-.28.3-.24-.11-.36l.1-.08c-.51-.88-1.61.31-2.13-.76 0 .07.06.1 0 .16-.81-.73-2.09-.6-2.81-1.51-.22-.22-.35 0-.59.07l.07-.3-.42.19c-.5.05-.38-1-1.08-.77v.21c-.16-.12-.62-.15-.49-.35 0 0-.15.17-.17 0l.06-.15h-.55c-.29-.26.31-.55-.17-.8-.21 0-.72.18-.69.31a.27.27 0 0 1 .09.32h-.2l-.12.21a2.16 2.16 0 0 0-1.12.18l.29.12-.22.05v-.11c-.21.07 0 .1.11.14a.7.7 0 0 0-.25.07l.45.11c-.18 0-.36 0-.46.05.21 0 .4-.08.55 0-.21.07-.38.07-.2.13a.43.43 0 0 1-.25 0c.15.06.07.17.32.19-.26.08.08.22-.36.24.11 0 .35.1.37.16-.53-.08 0 .23-.59.23.48.06.23.29.5.42h-.09c.03 0-.18.11-.26.17A1.9 1.9 0 0 1 35 37c-.37.12-.46 0-.82 0 .32 0 .32.16.59.11a1.2 1.2 0 0 1-.43.13c.49 0 .09.07.39.12-.24.12-.46 0-.3.16a.42.42 0 0 1-.33 0c0 .12.36 0 .58.06s-.27.08-.46.14c.1.09.44.14.43.21a.4.4 0 0 1-.16 0c.3.09 0 .29.4.39h-.09a4 4 0 0 1 .51 0c0 .06.24.09 0 .12h-.17l.11.05c-.34.07-.12-.07-.38-.06.12.11.41.23.32.32-.34 0-.12-.2-.42-.07l.12-.14c-.53.12 0-.08-.53 0-.09.18.18.19.09.37h.47c.35.24-.85.23-.39.4.23 0 .66 0 .44.18h-.39c0 .17.55.08.3.27-.15 0-.13-.13-.18-.1-.3.13.22.07.22.16h-.34c.06.18.31.37.38.57a.56.56 0 0 0-.31 0c.18.25 0 .55-.22.8l.3.09h-.19.3c.11 0-.17.08-.26 0 .25.16.55.47.24.65h-.09c-.12.14.61.14.34.28h-.05c-.12.3.16.63-.28.87.42 0-.18.3.41.31-.29.18-.4.13-.59.38 0 .07.37.09.43.17h-.31L35 44l-.37.06.08.07a.36.36 0 0 1 .23-.06c.14.12-.21.29-.37.29l.27.27a.5.5 0 0 1-.25-.09c.32.14-.32 0 0 .16a1 1 0 0 1 .25 0 .21.21 0 0 0-.11.34h-.21c-.05.21.11.43.1.66a.58.58 0 0 1 .5 0h-.33c.2 0 .12-.07.37 0 0 .09-.37.06-.48 0l.11.1a3 3 0 0 1-.27 0c.2 0-.33.18 0 .24h-.1c0 .23.11.33.13.52.28 0 .22.08.45.13-.09.14-.31.29-.29.46s.24 0 .41.09c-.26 0-.23.18-.42.09a.88.88 0 0 0 .26.51.5.5 0 0 1 .24 0s-.11.1-.23.1c.38.29-.75.65-.21.88l.28.24c0 .11-.19-.07-.35 0 .43.26-.07.4.22.61-.76.15 0 .57-.44.78h.18c.17.06-.1.07-.14.11.14 0 .16-.06.26 0 .21.48-.28 1-.44 1.46-.05.18.92.12.49.34l-.33-.07c.39.37 0 .74.3 1.1-.08 0-.17 0-.17-.06-.24.07 0 .27.18.28 0 .05-.18 0-.28 0s.3.2.06.23a.14.14 0 0 1-.1 0c.11.05 0 .23.24.19-.14.13.12.26-.05.36.31.08-.15.22.28.26-.45 0-.37.22-.16.31-.14 0-.14.07-.33 0 0 .1.08.19.32.18-.55.16.42.37-.27.44a3 3 0 0 1 .49.82c-.45 0 0-.28-.51-.29.18.25.56.4.44.64-.06.06-.19 0-.27-.07.18.25-.06.47.18.69a.26.26 0 0 1-.12-.05s-.07.1.13.1h-.05c.3-.06.61.19.77.21-.58-.1-.16.21-.89.06a.47.47 0 0 0 .27.07s-.12 0-.28 0c.1.16.33.11.31.25a2 2 0 0 1-.25-.05c.19.08.38.16.29.27s-.14 0-.13 0c0 .2.5.36.3.58-.43-.09-.15.07-.52.06l.11.12h.18c0 .1.26.21.13.29l-.15-.08.06.2.15-.1c.19.11.47 0 .36.14 0 0 0 .1-.23.15.12.06.24.12.14.19s-.41 0-.49 0c.31.07.07.25.4.33a1.2 1.2 0 0 0-.31 0l.25.06a.4.4 0 0 1-.28 0c-.05.14.48 0 .26.14h-.09c-.12.17.14.34 0 .49-.38 0-.08-.14-.4-.11.06.23.42.5.32.71.53.06-.27.15 0 .27a.7.7 0 0 0-.23 0c-.09.15.11.32.26.55h-.13c-.13.08-.08.23-.15.32.13 0 .11.09.31.07-.79.25.38.59-.28.81 0 0-.11-.08-.12-.06l.11.23c.23 0 .14 0 .32-.05s.24.11.23.16c-.15-.11-.37 0-.5 0h.22c-.42.09.46.05.18.19h-.12c.06.06.21.13.17.19-.27 0-.12-.07-.34-.09 0 .09.49.21.22.28-.07 0-.07-.1-.14-.14-.32.07-.24.08-.29.15l-.15.14h.09c.69.16.11.24.56.42-.42-.18-.25 0-.55-.08a.5.5 0 0 1-.27.06c.24.09-.2.11.15.23-.1 0 0 .08-.26 0 .07.1.17 0 .29 0 .32.17-.43.31 0 .55.17.19.5.25.65.43a.53.53 0 0 1-.35-.07c-.15.08-.13.15 0 .24a.1.1 0 0 0-.05 0 .8.8 0 0 0-.22 0c0 .07.35.07.2.15l-.43-.35h-.05.08l-.08.16c0-.09.23-.06.28 0a.2.2 0 0 1 .06.1 1.5 1.5 0 0 1-.27-.09.66.66 0 0 0 .22.24.5.5 0 0 1-.19.07l-.06-.15h-.07c-.37.18.18.57.13.84l-.51-.08a3 3 0 0 0 .33.29c-.11.05-.34.12-.4 0-.21.24.14.18-.09.41h-.07l.13.19c-.09 0-.28.14-.23 0-.19.56.38.53.17.85.18.23.26.17.33.1a.6.6 0 0 1 .41-.21 2.7 2.7 0 0 0-.29.81l.22-.23s.14.1.06.2c.29-.09 0-.13.23-.25a.2.2 0 0 0 .09.11c.24.15.61-.16.62.25.11-.26-.23-.13.06-.36.06.52.31-.18.55 0 0 .3-.31.25 0 .39.06-.51.56-.12.7-.27a.19.19 0 0 1 0-.22.27.27 0 0 1 0 .22 1 1 0 0 0 .1.17c.05 0 0-.27-.07-.39s.37-.15.55-.32c0 .12.64 0 1 0v.06c-.09-.36.22-.42.4-.58a.45.45 0 0 1 0 .44l.19-.09a.35.35 0 0 1 .15-.3l.06.27c.25-.13.39-.52.8-.5-.08-.24-.55-.54-.27-.85.07.12.18.33.11.42s.06-.15.15-.13v.28c.19 0 0-.21.13-.25.08.18.15.09.19.24s-.14 0-.15.06a.58.58 0 0 1 .48.12c-.06-.1-.11-.24 0-.31.25-.13.19.18.38.2 0-.15.23-.1.11-.37.08 0 .15.09.21.15.08-.18.61-.31.33-.53.31-.47 1-.26 1.35-.58v.09c.21-.22.55-.32.64-.61.08 0 .26.08.27.2.16-.16.14-.27.49-.26-.12.25.13.11-.15.21.29 0 .42.07.58-.3 0 .27.33.2.42.07l-.26-.08a1 1 0 0 1 .38-.17l.08.33c.7.11.63-1.08 1.33-.67 0-.28-.35 0-.35-.31.26-.08.72.23.8.19.41 0 .09-.59.48-.65a.41.41 0 0 1-.08-.57c.26-.08.52.3.41.46s-.1 0-.11 0-.14.17 0 .24v-.12c.17 0 .49-.13.51.08.13-.19 0-.21-.17-.2.38 0 .48-.24.85-.29-.08 0-.19-.13-.14-.16.52-.11.1-.31.38-.51.26.07.14.42.38.12.25 0 .19.26.16.38.18-.35.6-.15.78-.19l-.11.16a.5.5 0 0 1 .21-.17l-.2-.16h.23c0-.18-.25-.31-.17-.59.17 0 .29-.3.48 0-.42.1.19.26-.1.47a.28.28 0 0 1 .22-.11s0 .06 0 .09c.48.06 0-.4.36-.59 0 .18.24.25.29.19-.15.08-.21-.22-.14-.41.3 0 .2-.23.33-.28h-.17c0-.18.09-.22.23-.36.08.11-.1.16 0 .19 0-.37.56.06.71-.26.17 0 .17.29.31.3.17-.36.42 0 .62-.29-.2-.16-.19-.1-.09-.42l-.4.42.14-.48c-.15.08-.23.3-.34.31.05-.25.07-.19-.1-.33.37.2.29-.4.64-.32l.28.52c.48 0 .47-.61 1-.74h-.19c-.06-.24.26-.19.36-.35.08.18.21.19.33.26-.08-.12.33-.18.18-.54l.33.11c.41-.12.13-.73.5-.87 0 .25.23.27.08.54.12-.07.24-.1.17-.21.13.07.18-.42.39-.32 0-.1-.08-.29.05-.35a.2.2 0 0 1 0 .08c0-.08.13-.23-.09-.35.67.32 1-.63 1.54-.36a6.5 6.5 0 0 1 .7-.59c0 .06.05.08 0 .09.41 0-.11-.6.35-.64.35.16-.1.26.08.3.39.52.38-.34.82-.16v.07c.3.07.31-.48.63-.63a.2.2 0 0 0 .05.08 1.8 1.8 0 0 1 .58-1c0 .27-.06.2.14.38.11-.11-.26-.33 0-.55.16.06.41.05.58.27l-.23.16c.32.22.3-.21.46-.24l.07.14c.34-.28.13-.61.53-.85l-.11-.07c0-.46.3.07.35-.31l.28.29a4.5 4.5 0 0 1 .49-.88 2.5 2.5 0 0 1-.28.93c.14-.08.46-.34.43-.55 0 .07-.05.2-.15.19a1 1 0 0 1 .41-.85c.42.65.82-.4 1.42-.17.27-.66 1-.92 1.39-1.85-.67.08.08-.26-.52-.41 0-.18 0-.25.08-.26a3 3 0 0 0 .45-.56c.19-.15.12.22.25.21.08-.51.27-.2.44-.57-.35-.13-.45-.37-.42-.68M35 40.32v-.06zm0 .24a.3.3 0 0 0 0-.11h.19c-.01 0-.05.08-.13.11Zm13 .19c-.06 0 0 .15.09.26l-.23-.11c0-.09.07-.18.14-.15m-.3-1.93a.6.6 0 0 1 .09-.11c.1 0 .11.07.09.12Zm-.14 2h-.14ZM36 36.09l.38-.23c0 .13-.16.22-.17.32Zm-1.32 30.13.09.07Zm-.05.19c-.14-.07 0-.09.07-.1a.12.12 0 0 1 0 .11Zm.08.15h-.18a.19.19 0 0 1 .17-.01Zm30.45-16.39c.26.08.27.24.24.37a.42.42 0 0 0 0 .4c-.39 0-.42.16-.49.38s-.18.5-.5.48l.15.1c.06.2-.16 0-.24 0 .11.09.2 0 .22.15-.51.84-1.81 1.07-2.87 1.59-.38.19.3.91-.38.84l-.05-.36c-.51.79-1.49.94-2 1.67v-.22c-.28-.11-.57.34-.47.51-.12.05-.12-.13-.24-.18s-.22.5-.43.34v-.13c0 .16-.48.26-.24.44-.34.05-.45.42-.76.41 0 .35-.54.15-.36.56-.21-.4-.66 0-.73.25 0-.15-.22 0-.25-.24-.19.12-.33.3-.18.48-.64-.26-.51.81-1.06.32a11 11 0 0 1-1.41 1.4c-.2-.4.57-.37.31-.77-.41.45-.52.95-1.07 1.13-.16 0 0-.21 0-.3-.42.44-1 .51-1.33 1v-.16c0-.06-.24.05-.13.23l.06-.1c.29.18-.06.74 0 .89-.13-.6-.52.11-.63-.67a.28.28 0 0 0 0 .3c-.11 0-.17 0-.16-.23-.27.27-.05.4-.34.55v-.27c-.06.25-.12.5-.4.55 0-.06-.08-.11 0-.15-.41.25-.49.84-1 .91-.06-.46-.22 0-.42-.36l-.2.23.18.11c-.22.11-.3.45-.54.44l.09-.22-.38.27h.3c-.14.29.24.41-.1.47 0-.06-.22.11-.44 0-.06.16-.11.33-.32.33s-.15-.39-.21-.44c0 .33-.48.33-.47.7a.53.53 0 0 0-.11-.3v.27c-.14 0-.17 0-.22-.2-.33.11.31.38-.15.37v-.12c-.42.09-.64.5-1 .55-.26-.29.26-.23 0-.46-.46.3-.82.89-1.34 1h.11c.16.51-.47-.07-.6.27v-.24c-.36.07-.62.43-1 .81V66c-.24 0-.54.17-.78.21 0 .15-.14.19 0 .33-1-.42-1.07.94-1.91.59.07 0 .12-.18.06-.16l-.44.33c.13.2.12.1.29.22a.44.44 0 0 1-.23.36c.16-.24-.15-.34-.3-.42 0 .06 0 .14.08.21-.42-.27.14.45-.32.34v-.12c-.11.11-.17.31-.32.34-.16-.22.09-.17 0-.38-.19.1-.2.63-.48.46.06-.1.18-.16.23-.26-.32-.21-.31-.12-.48-.11h-.38.12c0 .75-.47.33-.61.89.17-.54 0-.26-.08-.56-.08-.06-.16-.13-.16-.22-.06.29-.11-.16-.25.26 0-.11-.1 0 0-.27-.11.1 0 .19 0 .33s-.21.13-.27 0-.09-.37-.42-.29c-.27-.09-.6 0-.78-.35.15-.17.36 0 .36 0a.35.35 0 0 0 0-.47.32.32 0 0 0 .27 0c0-.17-.35-.12-.2-.34a1.6 1.6 0 0 1 .38.18c-.07-.18-.21-.36-.3-.55a2 2 0 0 0 .28.09s-.11.07-.23.06c.08 0-.08.07.13.11s.28-.12.07-.21a.8.8 0 0 1 .22 0l-.26-.08v-.09l.1-.05h-.12a2 2 0 0 0-.05-.14h.1l.06.06c.39 0 .22-.12.09-.22-.06 0-.1-.09-.09-.12v.05l.38.08-.33-.15h.4c.21-.07-.14-.09.09-.14h.07l-.12-.09c.09 0 .29 0 .23.06.25-.13-.29-.27 0-.3-.12-.22-.3 0-.65-.23h.76-.3s0-.06.16 0c-.2-.1-.13 0-.33-.06.29-.08-.11-.3.38-.28-.23-.05-.19.09-.34 0 .52 0-.08-.13.17-.21s.12.13.37.05c-.45-.09.11-.18 0-.26a.28.28 0 0 1-.19-.06.4.4 0 0 1 .19.06h.2a1.8 1.8 0 0 0-.38-.07c-.06-.06 0-.17-.06-.27.12 0 .22-.24.36-.36h.06c-.36 0-.29-.17-.36-.27a.8.8 0 0 1 .4.1v-.09a.3.3 0 0 1-.21-.12h.27c0-.12-.31-.26-.11-.4-.26 0-.72.07-.88-.1a1.2 1.2 0 0 1 .43.06s-.11-.06-.05-.08l.23.08c.11-.06-.19 0-.17-.1h.3c.16 0-.08 0 0 .07a.45.45 0 0 1 .31-.14c-.11 0-.27 0-.29-.06s.24 0 .35-.09c-.14 0 0-.1-.28-.12h.22c-.13-.07 0-.29-.34-.24-.28-.22.19-.4.08-.61-.11-.12-.05-.27-.26-.36 0 0 .18-.07.3-.05-.07-.09-.18-.11 0-.23.17.1.15 0 .12.1.09-.11.25-.13 0-.27.25.06.32-.07.25-.13l-.18.07a.18.18 0 0 1 0-.17h.33c.42-.22-.66-.47 0-.62-.23-.08-.17.12-.44.05.05-.11.53-.2.54-.23.19-.14-.48-.17-.34-.32-.12 0-.44 0-.54-.11 0-.11.5-.11.6 0s0 0-.07 0a.19.19 0 0 0 .22 0h-.12c.12 0 .12-.2.31-.16a.17.17 0 0 0-.26 0c.18-.13 0-.22.14-.36h-.2c.16-.21-.22-.11-.27-.25.18-.07.43 0 .29-.1.13-.08.32 0 .41 0-.22-.14.16-.24.21-.32l.09.07a.11.11 0 0 1 0-.11h-.24s0-.07.14-.07c-.15 0-.4 0-.6-.08.12 0-.12-.17.19-.18-.11.17.32 0 .36.14v-.1a.12.12 0 0 1 .08 0c.29-.15-.35-.09-.34-.26.18 0 .34 0 .3-.06s-.3 0-.43 0c.14-.1-.1-.12-.08-.18l-.07.06c-.18 0-.15-.08-.2-.16.14 0 .09.07.15 0-.31-.1.33-.18.13-.31.12-.05.33 0 .42 0-.22-.14.25-.13.06-.28-.24 0-.18 0-.41-.07l.16.24-.34-.16c0 .07.14.15.1.19a.38.38 0 0 0-.33 0c.36-.08-.2-.2 0-.3h.59c.27-.16-.29-.3-.14-.51l-.1.07c-.23 0 0-.13-.12-.21a1.1 1.1 0 0 0 .39-.05c-.15 0 0-.16-.37-.19l.26-.09c.11-.17-.56-.22-.48-.38.21.06.36 0 .5.1 0-.06 0-.1-.09-.11.12 0-.26-.16-.07-.21-.09 0-.29 0-.27-.1h.1c-.1 0-.13-.1-.35-.05.62-.15 0-.48.5-.61a1.2 1.2 0 0 1-.13-.38h.08c.19-.15-.56-.11-.35-.28s.17.1.29 0c.65 0-.08-.21.3-.32.22-.08-.24-.22-.19-.37h.1a.88.88 0 0 1-.52-.44c.25 0 .13.07.39 0 0-.06-.42 0-.49-.12a1.6 1.6 0 0 1 .54-.13v.12c.36-.05 0-.15.05-.21h.16c0-.18-.44-.19-.41-.39h-.12c-.39-.11.22-.09-.07-.2h.4a2 2 0 0 1-.45-.38 2.2 2.2 0 0 1 .61.32.26.26 0 0 0-.22-.28s.13.07.07.09c-.31-.09-.46-.2-.45-.34.76 0 .2-.36.79-.45-.28-.25.13-.48.08-.77-.6.1 0-.08-.63-.07v-.09l.37-.2c.18 0 .13.06.27.06s.26-.06.42-.15c-.22 0-.31-.05-.23-.14l-.28.11c-.32-.21.51-.17.19-.38l.19.07c-.11-.11 0-.39-.48-.49h.28c.07-.25-.52-.56-.22-.76h.15s-.28-.08-.13-.14.15 0 .16 0-.26-.12-.17-.19l.17.05c.2-.25-.41-.38-.51-.58a.7.7 0 0 0 .65-.29h.06c.05-.29-.37-.48-.54-.75.48-.17.2-.56.46-.82a.57.57 0 0 1-.39 0c.09-.06-.31-.17.1-.16.4-.05.29-.18.3-.28h-.53c.76-.27-.29-.68.39-.83-.13-.06-.13-.14-.27-.2h.28a.56.56 0 0 0 0-.48h.2c0-.12-.82-.14-.84-.25h.42c0-.21.35-.43 0-.63h.2c.02 0 .28-.39-.3-.34.38 0 0-.22-.14-.33H37c-.36-.09-.46-.09-.56-.22a.23.23 0 0 1 .16 0c0-.07-.26-.06-.13-.18h.18c0-.11-.08-.1-.29-.15s.06-.21.32-.23c-.15 0-.36-.06-.29-.13a.36.36 0 0 1 .18 0c.18-.19-.33-.26-.06-.4h.17v.25c.26 0 .3-.13.66 0-.2-.09-.62-.24-.51-.35h.09v-.07c0-.02.07-.06.07-.1.21 0 .11-.14.12-.2-.28 0-.24-.06-.47 0a1 1 0 0 1 0 .14c-.14 0-.27-.09-.11-.16l-.46-.07c.39-.09.6-.25.84-.28-.16-.17-.12-.42-.65-.51-.07 0 .15-.06.23-.09s0 .06.12.08c-.14-.1-.06-.3-.43-.31.16-.13.34.06.28-.11h.11c.57-.37-1-.52-.23-.94a.26.26 0 0 1-.13.05c.31-.45-.35-.88.16-1.34.1-.13-.14-.13-.32-.2h.15V36c0 .06 0 0 .06-.07h.07c.08-.14 0-.34.24-.36.05.26-.06.39.18.3a.22.22 0 0 1-.18.19c.2-.07.41.12.59-.07 0 .3.52.16.32.55a.84.84 0 0 1 .54-.16c-.46.37.49.25.19.74.38-.35.74.1 1.16 0 0 0-.1.08-.12 0 .16.12.16.27.24.4.18-.35.5-.3.75-.45.06.44-.32.36-.4.72.12-.29.51-.12.55-.39.07.29.1.17.05.5.23-.43.19 0 .45-.22.14.33-.13.45.2.43.07.19-.24.24-.24.24.27.13.28-.27.42-.44.37.05 0 .32.07.54.24 0 .54-.24.68-.15 0 .06 0 .09-.06.15.34-.17.64.27 1 .05a.3.3 0 0 1 0 .1 1.8 1.8 0 0 1 .17-.48c.12 0 .32-.11.27.13-.07 0-.12 0-.18.1h.17c0 .37-.22 0-.33.26.3 0 .7-.12.86.05-.1.33-.49-.1-.36.29l-.23.05c0 .59-.16-.12-.19.5.35.27.51 0 .85.3.17-.13.09-.27.25-.4.69-.06.08 1 .68.75.2-.16.42-.53.61-.19l-.26.31c.36.2.44-.41.73 0-.13.11-.35 0-.31 0 .13.39.27-.12.47 0l-.1.33c.42.13 1 .11 1.44.25-.07.08-.19.14-.12.29a3.4 3.4 0 0 1 1.64 1l.33-.17v.19c.16.2.09-.16.24-.22s.09.23 0 .27c.47-.06 1.28 0 1.54.45h-.11c.26.25.59-.39.76 0h-.08c.61.41 1.45.5 1.78 1.13.27-.34.58.47.86-.05.26.44.11.48.56.9.13.09.36-.24.56-.22l-.12.28.37-.19v.39h.2a.24.24 0 0 1 0-.27c.32 0 .54.48.48.63h.72c-.06.11-.18.1-.3.14.45-.14-.07.32.34.19 0-.08.1-.16.13-.21.07.24.41.39.69.43l-.14.17c.43.25 1 .34 1.5.57-.14-.17.05-.49.22-.45l-.07.32c.18-.14-.1-.18.19-.32.17.12 0 .4-.18.44h.28c0 .09-.1.12-.17.22.18-.14.26.48.54.22v.09c.51.23.78.23 1.2.4.12-.25.26-.12.48-.27a3.5 3.5 0 0 0 .89.71c.3 0 .17-.18.35-.28-.09.24.26.38 0 .46a4.4 4.4 0 0 0 1.1.3v-.25c0-.06.14.21.06.31.36 0 .55.37.64.68s.1.57.41.56a2 2 0 0 1 .4.19c-.16.31-.4.12-.51.29M36.84 40H37s0 .05-.07.06a.2.2 0 0 0 0-.07Z" class="cls-1"/><path d="M47.44 39v.08l.07-.07Zm7.79 5.84.03-.07-.07.04zM35.95 68.18v.12Zm15.11-7.55c.09-.12.04-.07 0 0m-4.18 2.92a1 1 0 0 1 .09-.19c-.09.02-.15.05-.09.19m8.91-5.99v.01l.03-.02zM47 63.36a.3.3 0 0 0 .21-.1.21.21 0 0 0-.21.1M34.92 67.5c.15 0-.24.24-.06.23 0-.07.21-.2.15-.24Zm-.22 2.04v.11c0 .06 0 .12-.06.14a.2.2 0 0 1-.1 0l.07.07c.35.28-.06-.28.48-.19a1.6 1.6 0 0 1-.35-.11Zm1.89.12c.1-.15.11-.18-.07-.21-.23.15.06.15.07.21m7.41-3.5.09.24c.1-.1-.09-.09-.09-.24m.64-1.7.16-.16-.2-.08zm1.74 1.13.19-.19-.15.13zm12.03-6.71-.2-.25c-.06.1.1.37.2.25m5.16-3.52c-.12.05-.3 0-.34.1.15.09.34.09.34-.1m-5.73-12.23-.24-.01.09.06z" class="cls-1"/><text y="115" font-family="'Helvetica Neue', Helvetica, Arial-Unicode, Arial, Sans-serif" font-size="5" font-weight="bold">Created by Gamze
        Genc Celik</text><text y="120" font-family="'Helvetica Neue', Helvetica, Arial-Unicode, Arial, Sans-serif" font-size="5" font-weight="bold">from the Noun
        Project</text></svg>